<?xml version="1.0" standalone="no"?><!DOCTYPE svg PUBLIC "-//W3C//DTD SVG 1.1//EN" "http://www.w3.org/Graphics/SVG/1.1/DTD/svg11.dtd"><svg t="1581252374522" class="icon" viewBox="0 0 1024 1024" version="1.1" xmlns="http://www.w3.org/2000/svg" p-id="7804" xmlns:xlink="http://www.w3.org/1999/xlink" width="200" height="200"><defs><style type="text/css"></style></defs><path fill="current" d="M837.044313 744.252104c-31.47687 0-37.977043-26.036313-37.977043-58.145391l0-261.698783c0-32.109078 6.500174-58.181009 37.977043-58.181009 31.441252 0 56.952209 26.07193 56.952209 58.181009l0 261.698783C893.987617 718.215791 868.485565 744.252104 837.044313 744.252104zM248.404591 332.319165c0 0 2.19047-121.909426 123.14713-179.173287l-42.144278-58.928974c-7.737878-10.809878-5.404939-25.965078 5.155617-33.836522 10.596174-7.915965 25.466435-5.547409 33.1776 5.26247l50.5856 70.727235c28.645287-7.595409 61.537948-12.43047 100.681461-12.43047 32.714574 0 61.253009 3.178852 86.300939 8.690643l55.536417-76.408209c7.800209-10.774261 22.821843-13.1072 33.52487-5.26247 10.738643 7.880348 13.071583 22.964313 5.226852 33.702957l-46.062191 63.407861c130.039096 54.645983 126.539687 184.25767 126.539687 184.25767L248.404591 332.32807zM419.314643 220.863443c-15.760696 0-28.511722 13.000348-28.511722 29.072696 0 16.03673 12.751026 29.072696 28.511722 29.072696 15.725078 0 28.476104-13.035965 28.476104-29.072696C447.790748 233.863791 435.030817 220.863443 419.314643 220.863443zM580.714852 249.936139c0 16.03673 12.715409 29.072696 28.476104 29.072696 15.725078 0 28.476104-13.035965 28.476104-29.072696 0-16.072348-12.751026-29.072696-28.476104-29.072696C593.439165 220.863443 580.714852 233.863791 580.714852 249.936139zM191.42567 744.252104c-31.441252 0-56.952209-26.036313-56.952209-58.145391l0-261.698783c0-32.109078 25.502052-58.181009 56.952209-58.181009 31.47687 0 37.977043 26.07193 37.977043 58.181009l0 261.698783C229.402713 718.215791 222.902539 744.252104 191.42567 744.252104zM780.065391 773.369322c0 26.739757-21.227965 48.430748-47.442365 48.430748l-9.500939 0 0 101.812313c0 34.762574-27.656904 62.989357-61.716035 62.989357-34.094748 0-61.716035-28.226783-61.716035-62.989357L599.690017 821.80007 428.779965 821.80007l0 101.812313c0 34.762574-27.630191 62.989357-61.716035 62.989357-34.050226 0-61.716035-28.226783-61.716035-62.989357L305.347896 821.80007l-9.465322 0c-26.205496 0-47.477983-21.690991-47.477983-48.430748L248.404591 366.226922l531.6608 0L780.065391 773.369322z" p-id="7805"></path></svg>