<?xml version="1.0" standalone="no"?><!DOCTYPE svg PUBLIC "-//W3C//DTD SVG 1.1//EN" "http://www.w3.org/Graphics/SVG/1.1/DTD/svg11.dtd"><svg t="1581252356337" class="icon" viewBox="0 0 1024 1024" version="1.1" xmlns="http://www.w3.org/2000/svg" p-id="6809" xmlns:xlink="http://www.w3.org/1999/xlink" width="200" height="200"><defs><style type="text/css"></style></defs><path fill="current" d="M648.3456 194.4576c50.176-57.2928 44.6976-143.2576 44.6976-143.2576s-83.9168 7.0144-134.144 66.3552c-50.176 57.344-44.6976 143.3088-44.6976 143.3088s83.9168-9.0624 134.144-66.4064m107.008 330.8544c0-73.4208 39.1168-136.2432 98.4064-168.448-41.1648-58.8288-114.5344-92.9792-164.7616-92.9792-60.7744 0-144.64 42.7008-168.2432 42.7008-25.088 0-80.384-39.2192-152.2176-39.2192-57.2416-1.9968-157.184 34.2016-192.8704 136.2432-34.1504 102.0928-34.1504 250.368 39.2192 388.608 58.7264 111.104 111.0016 153.856 160.7168 153.856 49.7152 0 109.0048-37.6832 155.648-37.6832 46.7456 0 91.4432 37.6832 139.6736 37.6832 48.2304 0 98.4576-39.2192 134.144-95.0272 35.6352-55.296 69.7856-141.2608 69.7856-141.2608v-5.5296c-69.3248-26.624-119.552-96.512-119.552-178.944" p-id="6810"></path></svg>